<svg width="16" height="16" viewBox="0 0 16 16" fill="none" xmlns="http://www.w3.org/2000/svg">
<g clip-path="url(#clip0_432_1963)">
<path d="M0 0H16V16H0V0Z" fill="#000066"/>
<path fill-rule="evenodd" clip-rule="evenodd" d="M1.71563 11.5184L2.98438 11.9996L3.40313 10.7059L3.81875 11.9996L5.09062 11.5184L4.3375 12.6527L5.50625 13.3465L4.15312 13.4621L4.34062 14.809L3.40313 13.8246L2.46563 14.809L2.65313 13.4652L1.29688 13.3465L2.46875 12.6527M12.625 14.8871L12.0312 14.9371L12.1156 15.5246L11.7094 15.0965L11.3031 15.5246L11.375 14.9371L10.7875 14.8871L11.2969 14.5871L10.9688 14.0934L11.5219 14.3027L11.7031 13.7402L11.8813 14.3027L12.4375 14.0934L12.1125 14.5871M12.6187 6.13711L12.0312 6.18711L12.1125 6.77461L11.7063 6.34648L11.3 6.77461L11.375 6.18711L10.7875 6.13711L11.2969 5.83711L10.9688 5.34336L11.5219 5.55273L11.7031 4.99023L11.8813 5.55273L12.4375 5.34336L12.1125 5.83711M9.3375 9.69336L8.75 9.74336L8.83125 10.3277L8.425 9.89961L8.01875 10.3277L8.09688 9.74336L7.50938 9.69336L8.01875 9.39023L7.69063 8.89961L8.24375 9.10898L8.425 8.54648L8.60312 9.10898L9.15625 8.89961L8.83125 9.39023M15.5312 8.81836L14.9438 8.86836L15.025 9.45273L14.6187 9.02461L14.2125 9.45273L14.2906 8.86836L13.7031 8.81836L14.2125 8.51523L13.8844 8.02461L14.4375 8.23398L14.6187 7.67148L14.8 8.23398L15.35 8.02461L15.025 8.51523M13.0188 11.0934L12.6969 11.2934L12.7875 10.9246L12.4969 10.6809L12.8719 10.6527L13.0188 10.3027L13.1562 10.6559L13.5344 10.6871L13.2469 10.9277L13.3375 11.2965" fill="white"/>
<path d="M0 0H8V8H0V0Z" fill="#000066"/>
<path d="M8 0V1L5.03125 4L8 6.92188V8H6.95312L3.96875 5.0625L1.0625 8H0V6.9375L2.90625 4.01562L0 1.15625V0H0.96875L3.96875 2.9375L6.875 0H8Z" fill="white"/>
<path d="M2.875 5.0625L3.04688 5.59375L0.65625 8H0V7.95312L2.875 5.0625ZM4.8125 4.875L5.65625 5L8 7.29688V8L4.8125 4.875ZM8 0L5 3.0625L4.9375 2.375L7.28125 0H8ZM0 0.015625L3.01562 2.96875L2.09375 2.84375L0 0.765625V0.015625Z" fill="#C8102E"/>
<path d="M2.75 0V8H5.25V0H2.75ZM0 2.75V5.25H8V2.75H0Z" fill="white"/>
<path d="M0 3.25V4.75H8V3.25H0ZM3.25 0V8H4.75V0H3.25Z" fill="#C8102E"/>
</g>
<defs>
<clipPath id="clip0_432_1963">
<rect width="16" height="16" rx="8" fill="white"/>
</clipPath>
</defs>
</svg>
