<svg width="16" height="17" viewBox="0 0 16 17" fill="none" xmlns="http://www.w3.org/2000/svg">
<mask id="mask0_432_2646" style="mask-type:alpha" maskUnits="userSpaceOnUse" x="0" y="0" width="16" height="17">
<rect y="0.5" width="16" height="16" fill="#D9D9D9"/>
</mask>
<g mask="url(#mask0_432_2646)">
<path d="M4.00016 9.83398H9.3335V8.50065H4.00016V9.83398ZM4.00016 7.83398H12.0002V6.50065H4.00016V7.83398ZM4.00016 5.83398H12.0002V4.50065H4.00016V5.83398ZM1.3335 15.1673V3.16732C1.3335 2.80065 1.46405 2.48676 1.72516 2.22565C1.98627 1.96454 2.30016 1.83398 2.66683 1.83398H13.3335C13.7002 1.83398 14.0141 1.96454 14.2752 2.22565C14.5363 2.48676 14.6668 2.80065 14.6668 3.16732V11.1673C14.6668 11.534 14.5363 11.8479 14.2752 12.109C14.0141 12.3701 13.7002 12.5007 13.3335 12.5007H4.00016L1.3335 15.1673Z" fill="#625AE9"/>
</g>
</svg>
