<svg width="16" height="17" viewBox="0 0 16 17" fill="none" xmlns="http://www.w3.org/2000/svg">
<mask id="mask0_432_2651" style="mask-type:alpha" maskUnits="userSpaceOnUse" x="0" y="0" width="16" height="17">
<rect y="0.5" width="16" height="16" fill="#D9D9D9"/>
</mask>
<g mask="url(#mask0_432_2651)">
<path d="M8.00016 14.5009L7.0335 13.6342C5.91127 12.6231 4.9835 11.7509 4.25016 11.0176C3.51683 10.2842 2.9335 9.62591 2.50016 9.04258C2.06683 8.45925 1.76405 7.92313 1.59183 7.43425C1.41961 6.94536 1.3335 6.44536 1.3335 5.93424C1.3335 4.8898 1.6835 4.01758 2.3835 3.31758C3.0835 2.61758 3.95572 2.26758 5.00016 2.26758C5.57794 2.26758 6.12794 2.3898 6.65016 2.63424C7.17238 2.87869 7.62238 3.22313 8.00016 3.66758C8.37794 3.22313 8.82794 2.87869 9.35016 2.63424C9.87239 2.3898 10.4224 2.26758 11.0002 2.26758C12.0446 2.26758 12.9168 2.61758 13.6168 3.31758C14.3168 4.01758 14.6668 4.8898 14.6668 5.93424C14.6668 6.44536 14.5807 6.94536 14.4085 7.43425C14.2363 7.92313 13.9335 8.45925 13.5002 9.04258C13.0668 9.62591 12.4835 10.2842 11.7502 11.0176C11.0168 11.7509 10.0891 12.6231 8.96683 13.6342L8.00016 14.5009Z" fill="#625AE9"/>
</g>
</svg>
