<svg width="16" height="17" viewBox="0 0 16 17" fill="none" xmlns="http://www.w3.org/2000/svg">
<mask id="mask0_432_2640" style="mask-type:alpha" maskUnits="userSpaceOnUse" x="0" y="0" width="16" height="17">
<rect y="0.5" width="16" height="16" fill="#D9D9D9"/>
</mask>
<g mask="url(#mask0_432_2640)">
<path d="M7.99984 8.50065C8.3665 8.50065 8.68039 8.3701 8.9415 8.10898C9.20262 7.84787 9.33317 7.53398 9.33317 7.16732C9.33317 6.80065 9.20262 6.48676 8.9415 6.22565C8.68039 5.96454 8.3665 5.83398 7.99984 5.83398C7.63317 5.83398 7.31928 5.96454 7.05817 6.22565C6.79706 6.48676 6.6665 6.80065 6.6665 7.16732C6.6665 7.53398 6.79706 7.84787 7.05817 8.10898C7.31928 8.3701 7.63317 8.50065 7.99984 8.50065ZM7.99984 15.1673C6.21095 13.6451 4.87484 12.2312 3.9915 10.9257C3.10817 9.62009 2.6665 8.41176 2.6665 7.30065C2.6665 5.63398 3.20262 4.30621 4.27484 3.31732C5.34706 2.32843 6.58873 1.83398 7.99984 1.83398C9.41095 1.83398 10.6526 2.32843 11.7248 3.31732C12.7971 4.30621 13.3332 5.63398 13.3332 7.30065C13.3332 8.41176 12.8915 9.62009 12.0082 10.9257C11.1248 12.2312 9.78873 13.6451 7.99984 15.1673Z" fill="#625AE9"/>
</g>
</svg>
