<svg width="17" height="16" viewBox="0 0 17 16" fill="none" xmlns="http://www.w3.org/2000/svg">
<mask id="mask0_432_21269" style="mask-type:alpha" maskUnits="userSpaceOnUse" x="0" y="0" width="17" height="16">
<rect x="0.27002" width="16" height="16" fill="#D9D9D9"/>
</mask>
<g mask="url(#mask0_432_21269)">
<path d="M3.60335 14C3.23669 14 2.9228 13.8694 2.66169 13.6083C2.40058 13.3472 2.27002 13.0333 2.27002 12.6667V3.33333C2.27002 2.96667 2.40058 2.65278 2.66169 2.39167C2.9228 2.13056 3.23669 2 3.60335 2H8.27002V3.33333H3.60335V12.6667H8.27002V14H3.60335ZM10.9367 11.3333L10.02 10.3667L11.72 8.66667H6.27002V7.33333H11.72L10.02 5.63333L10.9367 4.66667L14.27 8L10.9367 11.3333Z" fill="white"/>
</g>
</svg>
