<svg width="16" height="16" viewBox="0 0 16 16" fill="none" xmlns="http://www.w3.org/2000/svg">
<mask id="mask0_432_14883" style="mask-type:alpha" maskUnits="userSpaceOnUse" x="0" y="0" width="16" height="16">
<rect width="16" height="16" fill="#D9D9D9"/>
</mask>
<g mask="url(#mask0_432_14883)">
<path d="M7.33304 15.2992V13.9659C5.94415 13.8103 4.75248 13.2353 3.75804 12.2409C2.7636 11.2464 2.1886 10.0548 2.03304 8.66588H0.699707V7.33255H2.03304C2.1886 5.94366 2.7636 4.752 3.75804 3.75755C4.75248 2.76311 5.94415 2.18811 7.33304 2.03255V0.699219H8.66637V2.03255C10.0553 2.18811 11.2469 2.76311 12.2414 3.75755C13.2358 4.752 13.8108 5.94366 13.9664 7.33255H15.2997V8.66588H13.9664C13.8108 10.0548 13.2358 11.2464 12.2414 12.2409C11.2469 13.2353 10.0553 13.8103 8.66637 13.9659V15.2992H7.33304ZM7.99971 12.6659C9.2886 12.6659 10.3886 12.2103 11.2997 11.2992C12.2108 10.3881 12.6664 9.28811 12.6664 7.99922C12.6664 6.71033 12.2108 5.61033 11.2997 4.69922C10.3886 3.78811 9.2886 3.33255 7.99971 3.33255C6.71082 3.33255 5.61082 3.78811 4.69971 4.69922C3.7886 5.61033 3.33304 6.71033 3.33304 7.99922C3.33304 9.28811 3.7886 10.3881 4.69971 11.2992C5.61082 12.2103 6.71082 12.6659 7.99971 12.6659ZM7.99971 10.6659C7.26637 10.6659 6.6386 10.4048 6.11637 9.88255C5.59415 9.36033 5.33304 8.73255 5.33304 7.99922C5.33304 7.26588 5.59415 6.63811 6.11637 6.11589C6.6386 5.59366 7.26637 5.33255 7.99971 5.33255C8.73304 5.33255 9.36082 5.59366 9.88304 6.11589C10.4053 6.63811 10.6664 7.26588 10.6664 7.99922C10.6664 8.73255 10.4053 9.36033 9.88304 9.88255C9.36082 10.4048 8.73304 10.6659 7.99971 10.6659Z" fill="#1C1B1F"/>
</g>
</svg>
