<svg width="16" height="16" viewBox="0 0 16 16" fill="none" xmlns="http://www.w3.org/2000/svg">
<g opacity="0.5">
<mask id="mask0_158_2635" style="mask-type:alpha" maskUnits="userSpaceOnUse" x="0" y="0" width="16" height="16">
<rect width="16" height="16" fill="#D9D9D9"/>
</mask>
<g mask="url(#mask0_158_2635)">
<path d="M7.99999 14.6663C7.07777 14.6663 6.21111 14.4912 5.39999 14.141C4.58888 13.7912 3.88333 13.3163 3.28333 12.7163C2.68333 12.1163 2.20844 11.4108 1.85866 10.5997C1.50844 9.78856 1.33333 8.9219 1.33333 7.99967C1.33333 7.07745 1.50844 6.21079 1.85866 5.39967C2.20844 4.58856 2.68333 3.88301 3.28333 3.28301C3.88333 2.68301 4.58888 2.2079 5.39999 1.85767C6.21111 1.5079 7.07777 1.33301 7.99999 1.33301C8.92222 1.33301 9.78888 1.5079 10.6 1.85767C11.4111 2.2079 12.1167 2.68301 12.7167 3.28301C13.3167 3.88301 13.7915 4.58856 14.1413 5.39967C14.4915 6.21079 14.6667 7.07745 14.6667 7.99967C14.6667 8.9219 14.4915 9.78856 14.1413 10.5997C13.7915 11.4108 13.3167 12.1163 12.7167 12.7163C12.1167 13.3163 11.4111 13.7912 10.6 14.141C9.78888 14.4912 8.92222 14.6663 7.99999 14.6663ZM7.33333 13.2997V11.9997C6.96666 11.9997 6.65288 11.8692 6.39199 11.6083C6.13066 11.347 5.99999 11.033 5.99999 10.6663V9.99967L2.79999 6.79967C2.76666 6.99967 2.73599 7.19967 2.70799 7.39967C2.68044 7.59967 2.66666 7.79967 2.66666 7.99967C2.66666 9.34412 3.10844 10.5219 3.99199 11.533C4.87511 12.5441 5.98888 13.133 7.33333 13.2997ZM11.9333 11.5997C12.1556 11.3552 12.3555 11.0912 12.5333 10.8077C12.7111 10.5246 12.8584 10.2301 12.9753 9.92434C13.0918 9.61901 13.1807 9.30523 13.242 8.98301C13.3029 8.66079 13.3333 8.33301 13.3333 7.99967C13.3333 6.91079 13.0307 5.91634 12.4253 5.01634C11.8196 4.11634 11.0111 3.46634 9.99999 3.06634V3.33301C9.99999 3.69967 9.86955 4.01345 9.60866 4.27434C9.34733 4.53567 9.03333 4.66634 8.66666 4.66634H7.33333V5.99967C7.33333 6.18856 7.26955 6.34679 7.14199 6.47434C7.01399 6.60234 6.85555 6.66634 6.66666 6.66634H5.33333V7.99967H9.33333C9.52222 7.99967 9.68066 8.06345 9.80866 8.19101C9.93622 8.31901 9.99999 8.47745 9.99999 8.66634V10.6663H10.6667C10.9556 10.6663 11.2167 10.7523 11.45 10.9243C11.6833 11.0968 11.8444 11.3219 11.9333 11.5997Z" fill="#1C1B1F"/>
</g>
</g>
</svg>
