<svg width="16" height="17" viewBox="0 0 16 17" fill="none" xmlns="http://www.w3.org/2000/svg">
<mask id="mask0_432_2656" style="mask-type:alpha" maskUnits="userSpaceOnUse" x="0" y="0" width="16" height="17">
<rect y="0.5" width="16" height="16" fill="#D9D9D9"/>
</mask>
<g mask="url(#mask0_432_2656)">
<path d="M3.99984 15.8327C3.63317 15.8327 3.31928 15.7021 3.05817 15.441C2.79706 15.1799 2.6665 14.866 2.6665 14.4993V7.16602C2.6665 6.79935 2.79706 6.48546 3.05817 6.22435C3.31928 5.96324 3.63317 5.83268 3.99984 5.83268H5.99984V7.16602H3.99984V14.4993H11.9998V7.16602H9.99984V5.83268H11.9998C12.3665 5.83268 12.6804 5.96324 12.9415 6.22435C13.2026 6.48546 13.3332 6.79935 13.3332 7.16602V14.4993C13.3332 14.866 13.2026 15.1799 12.9415 15.441C12.6804 15.7021 12.3665 15.8327 11.9998 15.8327H3.99984ZM7.33317 11.166V3.71602L6.2665 4.78268L5.33317 3.83268L7.99984 1.16602L10.6665 3.83268L9.73317 4.78268L8.6665 3.71602V11.166H7.33317Z" fill="#625AE9"/>
</g>
</svg>
