<svg width="16" height="16" viewBox="0 0 16 16" fill="none" xmlns="http://www.w3.org/2000/svg">
<g clip-path="url(#clip0_432_1920)">
<mask id="mask0_432_1920" style="mask-type:luminance" maskUnits="userSpaceOnUse" x="-1" y="0" width="17" height="16">
<path d="M-0.000614166 0H15.9969V15.9975H-0.000614166V0Z" fill="white"/>
</mask>
<g mask="url(#mask0_432_1920)">
<path fill-rule="evenodd" clip-rule="evenodd" d="M-4 0H19.9963V15.9975H-4V0Z" fill="#199D00"/>
<path fill-rule="evenodd" clip-rule="evenodd" d="M2.04746 4.53559C2.02166 4.90972 1.98618 5.56769 2.30549 5.63542C2.6893 5.6709 2.47643 4.9839 2.61512 4.86134C2.64414 4.79684 2.69252 4.79684 2.69575 4.87747V5.45802C2.69252 5.65154 2.81509 5.70315 2.91185 5.74508C3.01506 5.7354 3.07956 5.73863 3.12149 5.83539L3.16664 6.84491C3.16664 6.84491 3.40209 6.90942 3.41177 6.27725C3.42467 5.90634 3.33759 5.59349 3.38919 5.52253C3.38919 5.45157 3.4795 5.44835 3.54401 5.4806C3.64399 5.55156 3.68915 5.64187 3.84396 5.60316C4.08263 5.53866 4.22455 5.42255 4.231 5.24193C4.22279 5.06404 4.18576 4.88867 4.12134 4.72265C4.13101 4.6904 4.07296 4.60977 4.08586 4.57751C4.12779 4.64202 4.19229 4.6388 4.20842 4.57751C4.16649 4.44205 4.10521 4.31626 4.002 4.26143C3.91814 4.18725 3.79558 4.20338 3.75043 4.35819C3.74514 4.5615 3.81391 4.7598 3.94395 4.91617C3.9845 5.00381 4.00119 5.10061 3.99232 5.19677C3.92459 5.2387 3.85686 5.21935 3.79881 5.1613C3.79881 5.1613 3.60851 5.01616 3.60851 4.98713C3.66012 4.6646 3.62141 4.62912 3.59239 4.53881C3.57303 4.41625 3.51498 4.37755 3.4666 4.29369C3.41822 4.24208 3.35694 4.24208 3.32469 4.29369C3.24083 4.43883 3.27953 4.74846 3.34081 4.88714C3.38597 5.01616 3.45047 5.09679 3.41822 5.09679C3.39242 5.16775 3.34081 5.15162 3.30211 5.06776C3.25424 4.89011 3.23144 4.70665 3.23438 4.52268C3.21825 4.37754 3.20212 4.07114 3.10536 3.99373C3.04731 3.91633 2.96022 3.95503 2.9312 4.02599C2.92304 4.16578 2.92628 4.30601 2.94087 4.44528C3.00538 4.67105 3.02473 4.87747 3.05698 5.11292C3.06666 5.429 2.87314 5.2516 2.88282 5.09356C2.92797 4.89037 2.91507 4.56784 2.87637 4.48721C2.84411 4.40657 2.80864 4.38722 2.73445 4.40012C2.66995 4.39367 2.51836 4.56139 2.47643 4.84522C2.47643 4.84522 2.43772 4.99035 2.4216 5.11614C2.39902 5.26128 2.30549 5.36449 2.23775 5.09679C2.1797 4.90327 2.14422 4.4227 2.04746 4.53559Z" fill="white"/>
<path fill-rule="evenodd" clip-rule="evenodd" d="M3.09246 6.07074L2.09261 6.55131C2.10229 6.32554 2.56673 5.9127 2.88281 5.90625C3.08923 5.9127 3.03763 5.98688 3.09246 6.06752V6.07074Z" fill="white"/>
<path fill-rule="evenodd" clip-rule="evenodd" d="M2.91829 6.38378C2.38934 7.74164 4.15036 7.93193 4.34711 6.43861C4.36646 6.37733 4.44387 6.31605 4.45354 6.41604C4.41161 7.77067 3.09246 7.86098 2.86669 7.43524C2.81186 7.33848 2.79573 7.1127 2.78928 6.97724C2.75703 6.71277 2.61512 6.81598 2.59576 7.08045C2.57319 7.22559 2.57641 7.26752 2.57641 7.40943C2.64737 8.47379 4.35033 8.01579 4.62771 7.13528C4.77285 6.64826 4.60191 6.28702 4.68254 6.28702C4.85026 6.47087 5.08893 6.31283 5.14053 6.24832C5.16311 6.21607 5.21794 6.19672 5.25665 6.23865C5.38566 6.3354 5.62111 6.28702 5.66949 6.12253C5.69529 5.95804 5.71787 5.79033 5.72432 5.61616C5.61788 5.64841 5.53725 5.67099 5.5308 5.71292L5.50822 5.86128C5.49854 5.90644 5.40501 5.90966 5.40179 5.84838C5.35986 5.66454 5.19214 5.63874 5.08893 5.92579C5.0212 5.98385 4.89541 5.9903 4.88251 5.90966C4.89864 5.71614 4.82123 5.69034 4.66641 5.78065L4.51482 4.65179C4.57933 4.65179 4.64061 4.69695 4.69867 4.62276C4.63416 4.41957 4.49547 4.00995 4.42129 3.9777C4.38259 3.93255 4.35356 3.96157 4.30518 3.97125C4.22132 3.99705 4.14391 4.06801 4.16972 4.2067L4.42774 5.82581C4.44064 5.89354 4.38259 5.98707 4.3084 5.9774C4.18262 5.89031 4.15036 5.71937 3.93749 5.72582C3.77945 5.72582 3.60206 5.89676 3.58271 6.06125C3.55368 6.19027 3.54401 6.33218 3.58271 6.44507C3.68914 6.57408 3.82138 6.5644 3.93749 6.53215C4.03103 6.49344 4.10843 6.39991 4.14391 6.42249C4.16649 6.45152 4.14714 6.76115 3.6956 7.00304C3.42467 7.12561 3.20535 7.15141 3.08924 6.92886C3.01828 6.79017 3.09569 6.26122 2.91829 6.38056V6.38378Z" fill="white"/>
<path fill-rule="evenodd" clip-rule="evenodd" d="M5.15344 4.99967C5.25987 4.9642 5.7598 4.38687 5.7598 4.38687L5.68561 4.32881C5.65659 4.30301 5.65981 4.28043 5.68561 4.25463C5.80818 4.18367 5.76947 4.02241 5.70497 3.95145C5.6629 3.93044 5.61652 3.9195 5.5695 3.9195C5.52248 3.9195 5.47611 3.93044 5.43404 3.95145C5.34696 4.03853 5.3276 4.17077 5.39534 4.25463C5.45984 4.28688 5.5308 4.35139 5.48564 4.39009C5.27922 4.60941 4.71802 4.98677 4.78253 5.0029C4.79543 5.01903 5.14376 5.01903 5.15344 5.0029V4.99967ZM2.12487 7.03162C1.9378 7.33158 1.92167 7.77989 2.02811 7.91213C2.07971 7.97664 2.17002 8.00244 2.23775 7.98309C2.35709 7.93148 2.4087 7.69281 2.37967 7.60573C2.34096 7.54122 2.30871 7.53477 2.27001 7.58638C2.18615 7.75409 2.15067 7.63798 2.14422 7.54445C2.13132 7.36705 2.14745 7.19934 2.1668 7.07033C2.18938 6.93809 2.1668 6.97679 2.12487 7.03162ZM10.1591 6.54782C9.9785 6.15756 9.72693 5.77052 9.6463 5.62216C9.40307 5.23699 9.14484 4.86149 8.87222 4.49653C8.6787 4.2643 9.19153 4.59329 8.80772 4.13207C8.66258 4.00305 8.6529 3.99983 8.53034 3.89662C8.46906 3.85146 8.32069 3.77406 8.29489 3.90307C8.28207 3.99553 8.28645 4.08957 8.30779 4.18045C8.32069 4.24495 8.41423 4.35139 8.46261 4.41589C9.07542 5.23835 9.62049 6.0737 10.143 7.11871C10.2269 7.08 10.2075 6.61556 10.1591 6.54782Z" fill="white"/>
<path fill-rule="evenodd" clip-rule="evenodd" d="M9.36247 7.85991C9.32699 7.90184 9.44955 8.07278 9.61082 8.07278C9.88175 8.04052 10.1172 7.88894 10.3365 7.49222C10.3946 7.39546 10.4978 7.20194 10.501 7.0439C10.5236 6.14082 10.4559 5.4377 10.3204 4.78618C10.3139 4.72168 10.3204 4.64427 10.3301 4.62492C10.3462 4.60557 10.4042 4.62492 10.4365 4.57654C10.4817 4.52816 10.3139 4.1379 10.2204 3.98953C10.1849 3.9218 10.172 3.87665 10.1172 3.99598C10.0559 4.09274 10.0204 4.26368 10.0204 4.42172C10.1494 5.31191 10.1914 6.09244 10.2752 6.9794C10.2817 7.06648 10.2688 7.19227 10.2107 7.24065C9.97482 7.50459 9.68574 7.71563 9.36247 7.85991ZM13.0006 7.85668C12.8071 7.96634 12.8071 8.09536 12.9651 8.10181C13.2328 8.06955 13.5522 8.04698 13.7715 7.71477C13.8295 7.62123 13.9005 7.36966 13.9037 7.21807C13.9231 6.31498 13.8908 5.63767 13.7553 4.98615C13.7489 4.92165 13.7199 4.77651 13.7295 4.75716C13.7489 4.712 13.836 4.76038 13.8682 4.70878C13.9134 4.66362 13.6425 4.31206 13.5457 4.16047C13.5102 4.09597 13.4973 4.05081 13.4425 4.17015C13.3812 4.26691 13.3619 4.44108 13.3844 4.59267C13.5296 5.56026 13.636 6.28595 13.6554 7.14066C13.6457 7.22452 13.6425 7.26968 13.6038 7.36966C13.5199 7.47932 13.4264 7.61478 13.3361 7.67929C13.249 7.7438 13.0619 7.8083 13.0006 7.85668Z" fill="white"/>
<path fill-rule="evenodd" clip-rule="evenodd" d="M13.1458 6.98936V6.39913C13.1433 6.25205 13.1103 6.10709 13.049 5.97339C12.9909 5.84437 13.0264 5.74439 13.0006 5.6057C12.9748 5.47024 12.9813 5.26382 12.9426 5.10255C12.9297 5.03804 12.8974 4.83808 12.9103 4.81872C12.9232 4.77357 12.9845 4.81872 13.0135 4.76712C13.0587 4.71874 12.8587 4.20269 12.7587 4.05755C12.7232 3.99304 12.6587 4.0124 12.5749 4.12206C12.5007 4.18979 12.5297 4.35105 12.5588 4.50264C12.7523 5.51217 12.8942 6.42815 12.8652 7.38607C12.8555 7.46993 13.149 7.14417 13.1458 6.98936ZM11.7169 5.73794C11.5976 5.73794 11.3428 5.49926 11.2654 5.3638C11.2542 5.33115 11.2499 5.29654 11.2527 5.26214C11.2554 5.22774 11.2653 5.19427 11.2815 5.16383C11.3267 5.13158 11.3976 5.09933 11.4492 5.13158C11.4492 5.13158 11.5009 5.20899 11.4912 5.21866C11.5557 5.25092 11.5879 5.23156 11.5944 5.20254C11.5976 5.15738 11.5718 5.12835 11.5718 5.07352C11.6041 4.93483 11.7653 4.91226 11.8234 5.00257C11.8685 5.0574 11.8847 5.17351 11.8911 5.25414C11.8911 5.29284 11.8266 5.24446 11.7879 5.25414C11.7524 5.26704 11.7428 5.30897 11.7395 5.34767C11.7331 5.45088 11.7202 5.61538 11.7169 5.73471V5.73794ZM9.47213 7.24093C9.50438 6.9313 9.46245 6.38622 9.45923 6.20561C9.44633 5.77664 9.37537 4.94774 9.34312 4.81227C9.30442 4.55102 9.44955 4.8413 9.4302 4.68971C9.38182 4.43169 9.23668 4.25107 9.06897 4.0124C9.01414 3.93821 9.01736 3.92209 8.93028 4.03175C8.83997 4.24462 8.9206 4.38976 8.94318 4.55425C9.06574 5.09288 9.1367 5.58635 9.16895 6.0766C9.2051 6.5865 9.20941 7.09817 9.18185 7.60862C9.27539 7.61507 9.42375 7.46025 9.47213 7.24093Z" fill="white"/>
<path fill-rule="evenodd" clip-rule="evenodd" d="M13.5618 6.74798C13.3457 6.38997 13.0232 5.99971 12.9361 5.85457C12.6473 5.44916 12.3439 5.05433 12.0266 4.67088C11.7589 4.39028 12.1491 4.62573 11.975 4.40963C11.8266 4.24836 11.7815 4.19676 11.6589 4.1C11.5944 4.05807 11.5557 3.98066 11.5363 4.1129C11.5267 4.22901 11.5202 4.36448 11.5267 4.46446C11.5267 4.51929 11.5847 4.61928 11.6331 4.68056C12.2782 5.47721 12.9877 6.29321 13.5586 7.31564C13.6392 7.27048 13.6134 6.81249 13.5586 6.74798H13.5618Z" fill="white"/>
<path fill-rule="evenodd" clip-rule="evenodd" d="M3.83106 6.08387C3.81493 6.1129 3.77945 6.14838 3.79235 6.18063C3.81816 6.21288 3.83751 6.22256 3.87621 6.22579C3.90846 6.22579 3.96007 6.23224 3.96975 6.21288C3.98137 6.19867 3.989 6.18161 3.99183 6.16347C3.99467 6.14533 3.99261 6.12676 3.98587 6.10967C3.95362 6.01937 3.85041 6.05162 3.83106 6.08387Z" fill="#1BA400"/>
<path fill-rule="evenodd" clip-rule="evenodd" d="M11.0687 11.3308C11.3557 11.3405 11.5428 11.3437 11.7976 11.3728L12.0943 11.3405C12.4265 11.3083 12.4426 11.8146 12.4426 11.8146C12.4394 12.1114 12.3233 12.1243 12.1782 12.1565C12.0943 12.1694 12.0492 12.1081 12.0072 12.0436C11.9524 12.0662 11.8782 12.0694 11.7847 12.0565C11.6653 12.0501 11.546 12.0501 11.4299 12.0404C11.3009 12.0307 11.2332 12.0565 11.1074 12.0436C11.0783 12.0856 11.0429 12.1404 10.9687 12.1243C10.9042 12.1178 10.8268 11.934 10.8493 11.7985C10.8945 11.6985 10.8816 11.7308 10.8784 11.6856C9.70435 11.6566 8.52389 11.605 7.37245 11.6211C6.46937 11.6211 5.5824 11.6598 4.69544 11.6985C4.22132 11.6921 3.85686 11.6147 3.60851 11.247C3.63109 11.247 4.81801 11.3179 5.16311 11.2954C5.80818 11.2857 6.39196 11.2341 7.0467 11.2147C8.33682 11.2373 9.61082 11.2373 10.9009 11.3276C10.7784 11.2437 10.7719 11.0438 10.9655 10.9954C10.9784 10.9857 10.988 11.0922 11.0171 11.0922C11.1654 11.0825 11.1009 11.2857 11.0687 11.3308ZM5.89526 4.22547C5.70174 4.78345 6.00492 5.39303 6.21779 5.33497C6.37261 5.39948 6.46937 5.10598 6.53387 4.78667C6.5758 4.69636 6.60805 4.68669 6.63063 4.73184C6.62418 5.15758 6.66288 5.25112 6.77254 5.38013C6.83565 5.43646 6.9168 5.46839 7.00137 5.47016C7.08593 5.47194 7.16835 5.44344 7.23376 5.3898L7.42406 5.19629C7.46599 5.15436 7.52082 5.15113 7.5821 5.18983C7.64015 5.24466 7.63048 5.33497 7.75626 5.39948C7.85947 5.44141 8.08525 5.40916 8.13685 5.31885C8.20458 5.19951 8.22394 5.15758 8.25619 5.11243C8.30457 5.04792 8.38843 5.07372 8.38843 5.0963C8.38198 5.13178 8.3336 5.17048 8.36585 5.23499C8.4239 5.28014 8.44003 5.25112 8.47551 5.24144C8.59807 5.18338 8.69161 4.91246 8.69161 4.91246C8.69483 4.8157 8.64 4.82215 8.60452 4.8415L8.50776 4.90923C8.44326 4.91891 8.32715 4.95761 8.26909 4.8673C8.21103 4.76087 8.20781 4.60928 8.16265 4.49962C8.16265 4.49317 8.08525 4.32868 8.15943 4.319C8.19491 4.32545 8.27554 4.3448 8.28844 4.2803C8.32715 4.21579 8.20458 4.03195 8.12072 3.93841C8.04977 3.86101 7.94656 3.85133 7.8498 3.93196C7.78529 3.99647 7.79174 4.06098 7.77884 4.12871C7.76769 4.17577 7.76771 4.22478 7.77892 4.27183C7.79012 4.31888 7.81218 4.36265 7.84335 4.39963C7.91108 4.53187 8.03687 4.70281 7.99494 4.94794C7.99494 4.94794 7.92076 5.06082 7.79497 5.0447C7.74336 5.03179 7.65951 5.01244 7.61435 4.67701C7.5821 4.42221 7.6208 4.06743 7.51437 3.90293C7.47566 3.79972 7.44986 3.70297 7.3531 3.87713C7.3273 3.94164 7.21764 4.04485 7.29505 4.25772C7.36883 4.44518 7.3911 4.64898 7.35955 4.84795C7.3144 4.91568 7.30472 4.94149 7.24344 5.00922C7.16281 5.0963 7.0725 5.07372 7.00477 5.04147C6.94026 4.99954 6.88866 4.97696 6.85963 4.83828C6.86608 4.61895 6.87575 4.26094 6.83705 4.18354C6.779 4.06743 6.68224 4.10935 6.64031 4.14483C6.45315 4.35238 6.328 4.60828 6.27907 4.88343C6.22424 5.06082 6.16619 5.01244 6.12426 4.93826C6.02427 4.8415 6.01782 4.1029 5.89526 4.22547Z" fill="white"/>
<path fill-rule="evenodd" clip-rule="evenodd" d="M6.48227 5.44046C6.57257 5.37595 6.53065 5.33402 6.66288 5.46626C6.8331 5.76553 6.9324 6.09986 6.95316 6.44353C6.94349 6.52416 7.00154 6.57254 7.02734 6.55641C7.04024 6.36935 7.50146 6.10487 7.92075 6.06617C7.98526 6.05327 7.95301 5.9307 7.96268 5.8662C7.93688 5.63397 8.0917 5.4211 8.31424 5.40498C8.61097 5.45013 8.71096 5.60817 8.71741 5.85007C8.68515 6.31774 8.19813 6.39837 7.92398 6.43063C7.88205 6.44998 7.86592 6.46933 7.92398 6.49191L9.06897 6.49513L9.12702 6.52739C9.13347 6.55964 9.1109 6.53384 9.06252 6.60802C9.01414 6.6822 8.95285 6.85637 8.94963 6.96925C8.60636 7.06945 8.25426 7.13641 7.89818 7.16922C7.77562 7.23373 7.71433 7.31759 7.73691 7.41112C7.77884 7.51756 8.05622 7.62077 8.05622 7.62722C8.10782 7.65947 8.1691 7.73688 8.04009 7.89169C7.48211 7.86912 7.04992 7.63044 6.90156 7.29501C6.8564 7.26276 6.8048 7.29501 6.77577 7.34017C6.58158 7.63866 6.30161 7.87141 5.97267 8.00781C5.75012 8.06264 5.52435 7.97555 5.41791 7.83041C5.34696 7.74655 5.35018 7.65625 5.32115 7.63689C5.20182 7.6885 4.17294 8.12714 4.30518 7.92395C4.55353 7.65302 4.98895 7.45628 5.36953 7.1918C5.40179 7.10472 5.45017 6.80476 5.60176 6.708C5.60821 6.708 5.57595 6.88217 5.57918 6.95635C5.57918 7.01763 5.57595 7.04021 5.58885 7.02408C5.61466 7.00796 6.0791 6.6435 6.11458 6.53061C6.15973 6.46611 6.12748 6.30484 6.12748 6.29839C6.04362 6.07262 5.92106 6.05649 5.87591 5.94361C5.83398 5.79524 5.85333 5.62752 5.93719 5.57914C6.01137 5.51141 6.09845 5.51786 6.18231 5.59205C6.27907 5.6759 6.3597 5.84039 6.38551 5.96296C6.36938 6.01134 6.26294 5.9307 6.22424 5.95651C6.28875 6.02101 6.321 6.10165 6.34358 6.1984C6.40808 6.45643 6.38551 6.55319 6.32745 6.72091C6.12103 7.1531 5.85655 7.28534 5.62433 7.44338C5.61788 7.4466 5.61466 7.55626 5.70174 7.61432C5.73399 7.64657 5.85333 7.65947 5.99202 7.61432C6.29369 7.44775 6.53774 7.19359 6.69191 6.8854C6.73384 6.65317 6.67578 6.40805 6.6145 6.19518C6.5442 6.02539 6.47965 5.85328 6.42098 5.67913C6.41453 5.55012 6.42421 5.50496 6.48549 5.44046H6.48227ZM3.48918 4.23419C3.61819 4.29547 3.86654 4.26644 3.85686 4.0568L3.85041 3.95681C3.82461 3.89231 3.75043 3.90843 3.7343 3.97616C3.72785 3.99552 3.74398 4.03099 3.72462 4.04067C3.71172 4.05035 3.66979 4.0439 3.67302 3.98584C3.67302 3.96649 3.66012 3.94714 3.65044 3.93424C3.64077 3.93101 3.63754 3.92778 3.62141 3.92778C3.60206 3.92778 3.60529 3.93424 3.59239 3.95036L3.58271 3.99874C3.58271 4.02132 3.57303 4.02777 3.55691 4.03099C3.54078 4.03099 3.54401 4.03099 3.5311 4.02454C3.52143 4.01487 3.51175 4.01164 3.51175 3.99552L3.5053 3.94391C3.49671 3.9344 3.48548 3.92766 3.47305 3.92456C3.39887 3.92456 3.39564 4.00842 3.39887 4.04067C3.39242 4.0439 3.38919 4.19226 3.48918 4.23419Z" fill="white"/>
<path fill-rule="evenodd" clip-rule="evenodd" d="M7.34665 5.86588C7.47566 5.93038 7.79174 5.89168 7.71433 5.68849L7.70788 5.59173C7.68208 5.52722 7.61112 5.54335 7.59177 5.60785C7.58855 5.62721 7.60145 5.66268 7.5821 5.67236C7.57242 5.68526 7.53049 5.67881 7.53049 5.62075C7.53049 5.6014 7.51759 5.58205 7.50791 5.56915C7.50146 5.5627 7.49501 5.5627 7.47889 5.5627C7.46276 5.5627 7.46276 5.56592 7.45308 5.58205L7.44341 5.63043C7.44018 5.65301 7.43051 5.66268 7.4176 5.66268C7.39825 5.66268 7.4047 5.66268 7.38858 5.65623C7.38213 5.64656 7.36922 5.64333 7.36922 5.62721C7.36922 5.61108 7.36922 5.58528 7.36277 5.5756C7.35632 5.56592 7.34342 5.5627 7.33052 5.55947C7.25956 5.55947 7.25311 5.64011 7.25634 5.67236C7.25311 5.67881 7.24989 5.82395 7.34665 5.86588ZM9.59792 5.18856C9.72693 5.25307 9.97528 5.22404 9.9656 5.0144L9.95915 4.91441C9.93335 4.8499 9.85917 4.86603 9.84304 4.93054C9.83659 4.95311 9.85272 4.98537 9.83336 4.99504C9.82046 5.00795 9.77853 5.00149 9.78176 4.94344C9.78176 4.92409 9.76563 4.90474 9.75918 4.89183C9.74951 4.88861 9.74628 4.88538 9.72693 4.88538C9.7108 4.88538 9.7108 4.89183 9.70113 4.90796L9.69145 4.95634C9.69145 4.97569 9.68177 4.98537 9.66565 4.98859C9.64952 4.98859 9.65275 4.98859 9.63984 4.97892C9.63017 4.97247 9.62049 4.96602 9.62049 4.95312C9.62049 4.93699 9.61727 4.91119 9.61082 4.89828C9.60437 4.88861 9.59469 4.88538 9.57856 4.88216C9.50761 4.88216 9.50438 4.96602 9.50761 4.99504C9.50116 5.00149 9.49793 5.14986 9.59792 5.18856ZM10.759 6.8883C10.5333 7.14633 10.6332 7.57207 10.6848 7.66238C10.7623 7.81719 10.8203 7.91395 10.9687 7.98813C11.1041 8.08489 11.2073 8.02361 11.2654 7.95588C11.4009 7.81719 11.4009 7.45918 11.4654 7.38823C11.5105 7.25921 11.6202 7.28179 11.675 7.33985C11.7248 7.40994 11.7913 7.46648 11.8685 7.50434C11.9943 7.614 12.1427 7.63335 12.2911 7.53659C12.391 7.47853 12.4588 7.40435 12.5168 7.25921C12.5813 7.08182 12.5491 6.26904 12.5329 5.78847C12.5297 5.74977 12.4039 5.12406 12.4039 5.11761C12.4039 5.11116 12.3846 4.7983 12.3717 4.72412C12.3717 4.69509 12.362 4.68541 12.3943 4.69186C12.4265 4.71767 12.433 4.72089 12.4523 4.73057C12.4846 4.73702 12.5168 4.67896 12.4975 4.62413L12.1814 4.04358C12.1588 4.021 12.1266 3.9952 12.0846 4.05325C12.0602 4.07453 12.0407 4.10081 12.0273 4.1303C12.014 4.15979 12.0071 4.19182 12.0072 4.22419C12.0169 4.36288 12.0395 4.50157 12.0492 4.64026L12.1782 5.34338C12.2169 5.84653 12.2265 6.25614 12.2652 6.76252C12.2588 6.97216 12.1943 7.15923 12.1298 7.18181C12.1298 7.18181 12.0363 7.23986 11.975 7.18181C11.9266 7.15923 11.7427 6.87218 11.7427 6.87218C11.646 6.78509 11.5879 6.80767 11.517 6.87218C11.3364 7.04957 11.2525 7.385 11.1267 7.614C11.0945 7.6656 11.0009 7.71076 10.9009 7.61077C10.6429 7.25599 10.7945 6.75929 10.7623 6.8883H10.759ZM9.65597 3.95649C9.77531 4.00487 9.85594 4.24677 9.83014 4.36288C9.80756 4.5048 9.74305 4.66284 9.70113 4.64026C9.64952 4.62413 9.73338 4.49835 9.685 4.36611C9.6592 4.28225 9.49793 4.12421 9.51406 4.07906C9.4818 3.9823 9.58501 3.94037 9.65597 3.95649Z" fill="white"/>
<path fill-rule="evenodd" clip-rule="evenodd" d="M11.1428 7.03132C11.1654 6.74104 11.1235 6.56687 11.117 6.39916C11.1106 6.23144 10.9235 4.94777 10.8913 4.81875C10.8429 4.57686 11.0687 4.7865 11.0429 4.64459C10.9654 4.4672 10.7752 4.20917 10.7139 4.05758C10.6784 3.99308 10.6913 3.93179 10.6107 4.03823C10.541 4.23005 10.5168 4.43537 10.5397 4.63814C10.7332 5.64766 10.93 6.48624 10.8977 7.44738C10.9913 7.44738 11.0977 7.23774 11.1428 7.02809V7.03132ZM13.1554 4.36399C13.2651 4.41882 13.3264 4.71877 13.3167 4.80263C13.2941 4.96067 13.2361 5.12516 13.1941 5.10581C13.1522 5.08646 13.2038 4.87359 13.1812 4.80908C13.1587 4.71555 13.0135 4.54783 13.0264 4.49622C12.9974 4.39301 13.0909 4.34786 13.1554 4.36721V4.36399ZM5.16634 6.48624C5.26955 6.52817 5.3276 6.74427 5.31793 6.80877C5.29858 6.92488 5.24374 7.04745 5.20504 7.03454C5.16311 7.01842 5.21149 6.8636 5.19214 6.81522C5.18246 6.69589 5.04055 6.63461 5.04378 6.58623C5.01797 6.48947 5.10506 6.47334 5.16634 6.48947V6.48624Z" fill="white"/>
<path fill-rule="evenodd" clip-rule="evenodd" d="M7.65305 6.8185C7.78206 6.82495 7.8498 6.93139 7.72724 6.97332C7.60467 7.01525 7.48534 7.0475 7.48534 7.22489C7.53049 7.47324 7.42083 7.38616 7.35632 7.3539C7.28214 7.29907 7.06927 7.17006 7.04024 6.88623C7.03702 6.82173 7.08862 6.76367 7.17248 6.76367C7.30149 6.79592 7.48856 6.80238 7.64983 6.8185H7.65305Z" fill="#1B9D00"/>
<path fill-rule="evenodd" clip-rule="evenodd" d="M2.41837 3.88746C2.56996 3.93261 2.57964 4.15516 2.56674 4.22289C2.54739 4.34223 2.49256 4.46801 2.45385 4.45189C2.41192 4.43899 2.45385 4.27772 2.4345 4.22612C2.41192 4.15516 2.28291 4.02615 2.29904 3.98744C2.26678 3.91004 2.35709 3.87456 2.41837 3.89068V3.88746ZM5.41469 4.93891C5.29858 5.00342 5.25342 5.19048 5.32438 5.30015C5.39211 5.3969 5.49855 5.36143 5.51467 5.36143C5.62756 5.37433 5.69529 5.14533 5.69529 5.14533C5.69529 5.14533 5.69852 5.08082 5.56628 5.20339C5.50822 5.21306 5.50177 5.19371 5.48565 5.16146C5.47189 5.10077 5.4787 5.03723 5.505 4.98084C5.52435 4.92601 5.47919 4.90021 5.41469 4.93891ZM6.28552 3.80037C6.23069 3.8423 6.11136 3.96164 6.10813 4.10033C6.10813 4.17774 6.092 4.17774 6.14038 4.22934C6.17909 4.28095 6.21779 4.27772 6.29197 4.23902C6.31043 4.22705 6.32625 4.21144 6.33846 4.19314C6.35066 4.17483 6.35899 4.15422 6.36293 4.13258C6.38228 4.04227 6.2694 4.17451 6.25649 4.07453C6.23069 3.98422 6.30165 3.94551 6.36938 3.8552C6.36938 3.79392 6.36938 3.752 6.28875 3.80037H6.28552ZM6.99187 3.92939C6.96374 4.04252 6.94646 4.15808 6.94026 4.2745C6.92091 4.36158 7.03057 4.39706 7.08217 4.28417C7.15636 4.08098 7.15636 3.99389 7.16281 3.90681C7.14023 3.7778 7.04992 3.7778 6.99187 3.92616V3.92939ZM11.4267 6.18388C11.4396 6.16775 12.0524 5.73234 12.0524 5.73234C12.1137 5.71298 12.1008 5.95811 12.0717 5.95811C11.8825 6.14156 11.6646 6.29298 11.4267 6.40643C11.3944 6.42578 11.3654 6.23871 11.4267 6.18066V6.18388ZM11.9814 6.18066C12.0879 6.23226 12.133 6.54834 12.1201 6.6322C12.1233 6.79992 12.0169 6.93215 11.975 6.90958C11.9298 6.89022 11.9782 6.70316 11.9588 6.63865C11.9363 6.54512 11.8427 6.37095 11.8589 6.32257C11.8266 6.21613 11.9169 6.1613 11.9814 6.18066ZM8.35617 7.53529C8.3981 7.47078 8.52711 7.3837 8.53034 7.3837C8.59162 7.35144 8.64968 7.40627 8.64645 7.40305C8.65613 7.46433 8.60775 7.51916 8.62387 7.59979C8.63677 7.63205 8.64645 7.66752 8.70773 7.65462C8.80449 7.58044 8.8948 7.57399 8.99156 7.56754C9.06574 7.57399 9.06574 7.69655 9.02059 7.69978C8.83997 7.73848 8.76256 7.78686 8.63355 7.83524C8.57227 7.87072 8.52066 7.82556 8.52066 7.82234C8.52066 7.81911 8.48841 7.78686 8.51099 7.70623C8.51421 7.64172 8.48841 7.60947 8.43681 7.61592C8.39488 7.63527 8.3594 7.64817 8.34005 7.60302C8.33037 7.57076 8.33037 7.55464 8.35617 7.53529ZM12.6233 7.703C12.6491 7.73526 12.6684 7.76751 12.6233 7.82234L12.5071 7.9191C12.4846 7.9578 12.4749 8.00941 12.5362 8.02553C12.6491 8.05779 12.9135 7.88685 12.9135 7.88362C12.9555 7.85137 12.9426 7.79009 12.9361 7.79009C12.9135 7.76106 12.8555 7.77718 12.82 7.77396C12.8007 7.77396 12.7426 7.76428 12.7684 7.71268C12.7942 7.68043 12.8007 7.66107 12.8168 7.61914C12.8361 7.58044 12.82 7.55464 12.7555 7.53206C12.691 7.52239 12.6652 7.52884 12.5942 7.53206C12.5523 7.54174 12.5394 7.55786 12.5297 7.60624C12.5362 7.6772 12.5781 7.67397 12.6265 7.703H12.6233Z" fill="white"/>
<path fill-rule="evenodd" clip-rule="evenodd" d="M8.37875 5.92882C8.36262 5.96107 8.30457 5.95785 8.24974 5.92882C8.19491 5.89979 8.1691 5.84818 8.18523 5.81916C8.20136 5.79013 8.25941 5.79013 8.31424 5.81916C8.36907 5.84818 8.39487 5.89979 8.37875 5.92882ZM5.5953 4.25811C5.56305 4.26778 5.52112 4.23875 5.50177 4.1936C5.48242 4.14844 5.49209 4.11297 5.52435 4.10329C5.5566 4.09361 5.59853 4.12587 5.61788 4.1678C5.63723 4.20973 5.62756 4.25165 5.5953 4.25811Z" fill="#259F00"/>
<path fill-rule="evenodd" clip-rule="evenodd" d="M11.1009 11.7168C11.3912 11.7297 11.6686 11.72 11.9588 11.7361C12.0137 11.7781 11.975 11.891 11.9395 11.8813L11.6944 11.8748C11.6944 11.7813 11.4525 11.7974 11.4621 11.8781C11.3331 11.8942 11.217 11.8748 11.088 11.8684C11.0493 11.82 11.0558 11.7361 11.1009 11.7168Z" fill="#209000"/>
</g>
</g>
<defs>
<clipPath id="clip0_432_1920">
<rect width="16" height="16" rx="8" fill="white"/>
</clipPath>
</defs>
</svg>
