<svg width="16" height="16" viewBox="0 0 16 16" fill="none" xmlns="http://www.w3.org/2000/svg">
<rect width="16" height="16" fill="#1E1E1E"/>
<g id="Group 1816">
<g id="Desktop - 252" clip-path="url(#clip0_0_1)">
<rect width="1440" height="1024" transform="translate(-361 -52)" fill="white"/>
<rect id="Rectangle 1" x="-361" y="-52" width="1440" height="1024" fill="white"/>
<g id="Frame 427319432">
<g id="Frame 427319395">
<g id="Button" filter="url(#filter0_d_0_1)">
<rect x="-12" y="-12" width="379" height="40" rx="4" fill="white" shape-rendering="crispEdges"/>
<g id="Frame 4">
<g id="search">
<mask id="mask0_0_1" style="mask-type:alpha" maskUnits="userSpaceOnUse" x="0" y="0" width="16" height="16">
<rect id="Bounding box" width="16" height="16" fill="#D9D9D9"/>
</mask>
<g mask="url(#mask0_0_1)">
<path id="search_2" d="M13.0667 14L8.86667 9.8C8.53333 10.0667 8.15 10.2778 7.71667 10.4333C7.28333 10.5889 6.82222 10.6667 6.33333 10.6667C5.12222 10.6667 4.09722 10.2472 3.25833 9.40833C2.41944 8.56944 2 7.54444 2 6.33333C2 5.12222 2.41944 4.09722 3.25833 3.25833C4.09722 2.41944 5.12222 2 6.33333 2C7.54444 2 8.56944 2.41944 9.40833 3.25833C10.2472 4.09722 10.6667 5.12222 10.6667 6.33333C10.6667 6.82222 10.5889 7.28333 10.4333 7.71667C10.2778 8.15 10.0667 8.53333 9.8 8.86667L14 13.0667L13.0667 14ZM6.33333 9.33333C7.16667 9.33333 7.875 9.04167 8.45833 8.45833C9.04167 7.875 9.33333 7.16667 9.33333 6.33333C9.33333 5.5 9.04167 4.79167 8.45833 4.20833C7.875 3.625 7.16667 3.33333 6.33333 3.33333C5.5 3.33333 4.79167 3.625 4.20833 4.20833C3.625 4.79167 3.33333 5.5 3.33333 6.33333C3.33333 7.16667 3.625 7.875 4.20833 8.45833C4.79167 9.04167 5.5 9.33333 6.33333 9.33333Z" fill="#1C1B1F"/>
</g>
</g>
</g>
<rect x="-11.5" y="-11.5" width="378" height="39" rx="3.5" stroke="#0F0F0F" stroke-opacity="0.15" shape-rendering="crispEdges"/>
</g>
</g>
</g>
</g>
</g>
<defs>
<filter id="filter0_d_0_1" x="-14" y="-13" width="383" height="44" filterUnits="userSpaceOnUse" color-interpolation-filters="sRGB">
<feFlood flood-opacity="0" result="BackgroundImageFix"/>
<feColorMatrix in="SourceAlpha" type="matrix" values="0 0 0 0 0 0 0 0 0 0 0 0 0 0 0 0 0 0 127 0" result="hardAlpha"/>
<feOffset dy="1"/>
<feGaussianBlur stdDeviation="1"/>
<feComposite in2="hardAlpha" operator="out"/>
<feColorMatrix type="matrix" values="0 0 0 0 0.0588235 0 0 0 0 0.0588235 0 0 0 0 0.0588235 0 0 0 0.05 0"/>
<feBlend mode="normal" in2="BackgroundImageFix" result="effect1_dropShadow_0_1"/>
<feBlend mode="normal" in="SourceGraphic" in2="effect1_dropShadow_0_1" result="shape"/>
</filter>
<clipPath id="clip0_0_1">
<rect width="1440" height="1024" fill="white" transform="translate(-361 -52)"/>
</clipPath>
</defs>
</svg>
