<svg width="16" height="17" viewBox="0 0 16 17" fill="none" xmlns="http://www.w3.org/2000/svg">
<mask id="mask0_432_2661" style="mask-type:alpha" maskUnits="userSpaceOnUse" x="0" y="0" width="16" height="17">
<rect y="0.5" width="16" height="16" fill="#D9D9D9"/>
</mask>
<g mask="url(#mask0_432_2661)">
<path d="M12 15.1673C11.4444 15.1673 10.9722 14.9729 10.5833 14.584C10.1944 14.1951 10 13.7229 10 13.1673C10 13.0895 10.0056 13.009 10.0167 12.9257C10.0278 12.8423 10.0444 12.7673 10.0667 12.7007L5.36667 9.96732C5.17778 10.134 4.96667 10.2645 4.73333 10.359C4.5 10.4534 4.25556 10.5007 4 10.5007C3.44444 10.5007 2.97222 10.3062 2.58333 9.91732C2.19444 9.52843 2 9.05621 2 8.50065C2 7.9451 2.19444 7.47287 2.58333 7.08398C2.97222 6.6951 3.44444 6.50065 4 6.50065C4.25556 6.50065 4.5 6.54787 4.73333 6.64232C4.96667 6.73676 5.17778 6.86732 5.36667 7.03398L10.0667 4.30065C10.0444 4.23398 10.0278 4.15898 10.0167 4.07565C10.0056 3.99232 10 3.91176 10 3.83398C10 3.27843 10.1944 2.80621 10.5833 2.41732C10.9722 2.02843 11.4444 1.83398 12 1.83398C12.5556 1.83398 13.0278 2.02843 13.4167 2.41732C13.8056 2.80621 14 3.27843 14 3.83398C14 4.38954 13.8056 4.86176 13.4167 5.25065C13.0278 5.63954 12.5556 5.83398 12 5.83398C11.7444 5.83398 11.5 5.78676 11.2667 5.69232C11.0333 5.59787 10.8222 5.46732 10.6333 5.30065L5.93333 8.03398C5.95556 8.10065 5.97222 8.17565 5.98333 8.25898C5.99444 8.34232 6 8.42287 6 8.50065C6 8.57843 5.99444 8.65898 5.98333 8.74232C5.97222 8.82565 5.95556 8.90065 5.93333 8.96732L10.6333 11.7007C10.8222 11.534 11.0333 11.4034 11.2667 11.309C11.5 11.2145 11.7444 11.1673 12 11.1673C12.5556 11.1673 13.0278 11.3618 13.4167 11.7507C13.8056 12.1395 14 12.6118 14 13.1673C14 13.7229 13.8056 14.1951 13.4167 14.584C13.0278 14.9729 12.5556 15.1673 12 15.1673ZM12 4.50065C12.1889 4.50065 12.3472 4.43676 12.475 4.30898C12.6028 4.18121 12.6667 4.02287 12.6667 3.83398C12.6667 3.6451 12.6028 3.48676 12.475 3.35898C12.3472 3.23121 12.1889 3.16732 12 3.16732C11.8111 3.16732 11.6528 3.23121 11.525 3.35898C11.3972 3.48676 11.3333 3.6451 11.3333 3.83398C11.3333 4.02287 11.3972 4.18121 11.525 4.30898C11.6528 4.43676 11.8111 4.50065 12 4.50065ZM4 9.16732C4.18889 9.16732 4.34722 9.10343 4.475 8.97565C4.60278 8.84787 4.66667 8.68954 4.66667 8.50065C4.66667 8.31176 4.60278 8.15343 4.475 8.02565C4.34722 7.89787 4.18889 7.83398 4 7.83398C3.81111 7.83398 3.65278 7.89787 3.525 8.02565C3.39722 8.15343 3.33333 8.31176 3.33333 8.50065C3.33333 8.68954 3.39722 8.84787 3.525 8.97565C3.65278 9.10343 3.81111 9.16732 4 9.16732ZM12 13.834C12.1889 13.834 12.3472 13.7701 12.475 13.6423C12.6028 13.5145 12.6667 13.3562 12.6667 13.1673C12.6667 12.9784 12.6028 12.8201 12.475 12.6923C12.3472 12.5645 12.1889 12.5007 12 12.5007C11.8111 12.5007 11.6528 12.5645 11.525 12.6923C11.3972 12.8201 11.3333 12.9784 11.3333 13.1673C11.3333 13.3562 11.3972 13.5145 11.525 13.6423C11.6528 13.7701 11.8111 13.834 12 13.834Z" fill="white"/>
</g>
</svg>
