<svg width="16" height="16" viewBox="0 0 16 16" fill="none" xmlns="http://www.w3.org/2000/svg">
<g clip-path="url(#clip0_432_1952)">
<path fill-rule="evenodd" clip-rule="evenodd" d="M0 0H30.4003V1.23078H0V0ZM0 2.46156H30.4003V3.69234H0V2.46156ZM0 4.92312H30.4003V6.15391H0V4.92312ZM0 7.38469H30.4003V8.61547H0V7.38469ZM0 9.84625H30.4003V11.077H0V9.84625ZM0 12.3078H30.4003V13.5386H0V12.3078ZM0 14.7694H30.4003V16.0002H0V14.7694Z" fill="#BD3D44"/>
<path fill-rule="evenodd" clip-rule="evenodd" d="M0 1.23047H30.4003V2.46125H0V1.23047ZM0 3.69203H30.4003V4.92281H0V3.69203ZM0 6.15359H30.4003V7.38438H0V6.15359ZM0 8.61516H30.4003V9.84594H0V8.61516ZM0 11.0767H30.4003V12.3075H0V11.0767ZM0 13.5383H30.4003V14.7691H0V13.5383Z" fill="white"/>
<path fill-rule="evenodd" clip-rule="evenodd" d="M0 0H12.1601V8.61547H0V0Z" fill="#192F5D"/>
<path fill-rule="evenodd" clip-rule="evenodd" d="M1.00925 0.369141L1.13231 0.713734H1.47694L1.19384 0.922984L1.30463 1.2553L1.00925 1.04605L0.738469 1.2553L0.849251 0.922984L0.553844 0.713734H0.923126L1.00925 0.369141ZM3.04003 0.369141L3.15081 0.713734H3.50772L3.21234 0.922984L3.33541 1.2553L3.04003 1.04605L2.74466 1.2553L2.86772 0.922984L2.57234 0.713734H2.92925L3.04003 0.369141ZM5.07081 0.369141L5.18159 0.713734H5.5385L5.24313 0.922984L5.36622 1.2553L5.07081 1.04605L4.77544 1.2553L4.8985 0.922984L4.60313 0.713734H4.96006L5.07081 0.369141ZM7.08931 0.369141L7.21238 0.713734H7.557L7.27391 0.922984L7.38469 1.2553L7.08931 1.04605L6.80622 1.2553L6.917 0.922984L6.62159 0.713734H6.99084L7.08931 0.369141ZM9.12009 0.369141L9.23084 0.713734H9.58778L9.29241 0.922984L9.41547 1.2553L9.10778 1.04605L8.82469 1.2553L8.93547 0.922984L8.64009 0.713734H8.997L9.12009 0.369141ZM11.1509 0.369141L11.2617 0.713734H11.6186L11.3232 0.922984L11.4463 1.2553L11.1509 1.04605L10.8555 1.2553L10.9786 0.922984L10.6832 0.713734H11.0401L11.1509 0.369141ZM2.03078 1.23067L2.14156 1.5753H2.4985L2.20309 1.78452L2.32619 2.11683L2.03078 1.90761L1.73541 2.11683L1.85847 1.78452L1.56309 1.5753H1.92003L2.03078 1.23067ZM4.04928 1.23067L4.17234 1.5753H4.51697L4.23388 1.78452L4.34466 2.11683L4.04928 1.90761L3.76619 2.11683L3.87697 1.78452L3.58156 1.5753H3.95081L4.04928 1.23067ZM6.08006 1.23067L6.19084 1.5753H6.54775L6.25238 1.78452L6.37544 2.11683L6.08006 1.90761L5.78466 2.11683L5.90775 1.78452L5.61238 1.5753H5.96928L6.08006 1.23067ZM8.11084 1.23067L8.22163 1.5753H8.57853L8.28316 1.78452L8.40625 2.11683L8.11084 1.90761L7.81547 2.11683L7.93853 1.78452L7.64316 1.5753H8.00009L8.11084 1.23067ZM10.1293 1.23067L10.2524 1.5753H10.5847L10.3016 1.78452L10.4124 2.11683L10.117 1.90761L9.83394 2.11683L9.94472 1.78452L9.64931 1.5753H10.0186L10.1293 1.23067ZM1.02153 2.09223L1.12 2.43683H1.48925L1.19384 2.64608L1.30463 2.97839L1.00925 2.76914L0.738469 2.97839L0.849251 2.64608L0.553844 2.43683H0.923126L1.02153 2.09223ZM3.04003 2.09223L3.15081 2.43683H3.50772L3.22466 2.64608L3.33541 2.97839L3.04003 2.76914L2.75694 2.97839L2.86772 2.64608L2.57234 2.43683H2.92925L3.04003 2.09223ZM5.07081 2.09223L5.18159 2.43683H5.5385L5.24313 2.64608L5.36622 2.97839L5.07081 2.76914L4.77544 2.97839L4.8985 2.64608L4.60313 2.43683H4.96006L5.07081 2.09223ZM7.08931 2.09223L7.21238 2.43683H7.557L7.27391 2.64608L7.38469 2.97839L7.08931 2.76914L6.80622 2.97839L6.917 2.64608L6.62159 2.43683H6.99084L7.08931 2.09223ZM9.12009 2.09223L9.23084 2.43683H9.58778L9.30472 2.64608L9.41547 2.97839L9.12009 2.76914L8.837 2.97839L8.94778 2.64608L8.65241 2.43683H9.00931L9.12009 2.09223ZM11.1509 2.09223L11.2617 2.43683H11.6186L11.3232 2.64608L11.4463 2.97839L11.1509 2.76914L10.8555 2.97839L10.9786 2.64608L10.6832 2.43683H11.0401L11.1509 2.09223ZM2.03078 2.95373L2.14156 3.29836H2.4985L2.20309 3.50758L2.32619 3.83989L2.03078 3.63067L1.73541 3.83989L1.85847 3.50758L1.56309 3.29836H1.92003L2.03078 2.95373ZM4.04928 2.95373L4.17234 3.29836H4.51697L4.23388 3.50758L4.34466 3.83989L4.04928 3.63067L3.76619 3.83989L3.87697 3.50758L3.58156 3.29836H3.95081L4.04928 2.95373ZM6.08006 2.95373L6.19084 3.29836H6.54775L6.26469 3.50758L6.37544 3.83989L6.08006 3.63067L5.79697 3.83989L5.90775 3.50758L5.61238 3.29836H5.96928L6.08006 2.95373ZM8.11084 2.95373L8.22163 3.29836H8.57853L8.28316 3.50758L8.40625 3.83992L8.11084 3.6307L7.81547 3.83992L7.93853 3.50761L7.64316 3.29839H8.00009L8.11084 2.95373ZM10.1293 2.95373L10.2524 3.29836H10.5847L10.3016 3.50758L10.4124 3.83989L10.117 3.63067L9.83394 3.83989L9.94472 3.50758L9.64931 3.29836H10.0186L10.1293 2.95373ZM1.02153 3.8153L1.12 4.15989H1.48925L1.19384 4.36914L1.30463 4.70145L1.00925 4.4922L0.738469 4.70145L0.849251 4.36914L0.553844 4.15989H0.923126L1.02153 3.8153ZM3.04003 3.8153L3.15081 4.15989H3.50772L3.22466 4.36914L3.33541 4.70145L3.04003 4.4922L2.75694 4.70145L2.86772 4.36914L2.57234 4.15989H2.92925L3.04003 3.8153ZM5.07081 3.8153L5.18159 4.15989H5.5385L5.24313 4.36914L5.36622 4.70145L5.07081 4.4922L4.77544 4.70145L4.8985 4.36914L4.60313 4.15989H4.96006L5.07081 3.8153ZM7.08931 3.8153L7.21238 4.15989H7.557L7.27391 4.36914L7.38469 4.70145L7.08931 4.4922L6.80622 4.70145L6.917 4.36914L6.62159 4.15989H6.99084L7.08931 3.8153ZM9.12009 3.8153L9.23084 4.15989H9.58778L9.30472 4.36914L9.41547 4.70145L9.12009 4.4922L8.837 4.70145L8.94778 4.36914L8.65241 4.15989H9.00931L9.12009 3.8153ZM11.1509 3.8153L11.2617 4.15989H11.6186L11.3232 4.36914L11.4463 4.70145L11.1509 4.4922L10.8555 4.70145L10.9786 4.36914L10.6832 4.15989H11.0401L11.1509 3.8153ZM2.03078 4.67683L2.14156 5.02145H2.4985L2.20309 5.23067L2.32619 5.56298L2.03078 5.35377L1.73541 5.56298L1.85847 5.23067L1.56309 5.02145H1.92003L2.03078 4.67683ZM4.04928 4.67683L4.17234 5.02145H4.51697L4.23388 5.23067L4.34466 5.56298L4.04928 5.35377L3.76619 5.56298L3.87697 5.23067L3.58156 5.02145H3.95081L4.04928 4.67683ZM6.08006 4.67683L6.19084 5.02145H6.54775L6.26469 5.23067L6.37544 5.56298L6.08006 5.35377L5.79697 5.56298L5.90775 5.23067L5.61238 5.02145H5.96928L6.08006 4.67683ZM8.11084 4.67683L8.22163 5.02145H8.57853L8.28316 5.23067L8.40625 5.56302L8.11084 5.3538L7.81547 5.56302L7.93853 5.2307L7.64316 5.02148H8.00009L8.11084 4.67683ZM10.1293 4.67683L10.2524 5.02145H10.5847L10.3016 5.23067L10.4124 5.56298L10.117 5.35377L9.83394 5.56298L9.94472 5.23067L9.64931 5.02145H10.0186L10.1293 4.67683ZM1.02153 5.53839L1.12 5.88298H1.48925L1.19384 6.09223L1.30463 6.42455L1.00925 6.2153L0.738469 6.42455L0.849251 6.09223L0.553844 5.88298H0.923126L1.02153 5.53839ZM3.04003 5.53839L3.15081 5.88298H3.50772L3.22466 6.09223L3.33541 6.42455L3.04003 6.2153L2.75694 6.42455L2.86772 6.09223L2.57234 5.88298H2.92925L3.04003 5.53839ZM5.07081 5.53839L5.18159 5.88298H5.5385L5.24313 6.09223L5.36622 6.42455L5.07081 6.2153L4.77544 6.42455L4.8985 6.09223L4.60313 5.88298H4.96006L5.07081 5.53839ZM7.08931 5.53839L7.21238 5.88298H7.557L7.27391 6.09223L7.38469 6.42455L7.08931 6.2153L6.80622 6.42455L6.917 6.09223L6.62159 5.88298H6.99084L7.08931 5.53839ZM9.12009 5.53839L9.23084 5.88298H9.58778L9.30472 6.09223L9.41547 6.42455L9.12009 6.2153L8.837 6.42455L8.94778 6.09223L8.65241 5.88298H9.00931L9.12009 5.53839ZM11.1509 5.53839L11.2617 5.88298H11.6186L11.3232 6.09223L11.4463 6.42455L11.1509 6.2153L10.8555 6.42455L10.9786 6.09223L10.6832 5.88298H11.0401L11.1509 5.53839ZM2.03078 6.39995L2.14156 6.74458H2.4985L2.20309 6.9538L2.32619 7.28611L2.03078 7.07689L1.73541 7.28611L1.85847 6.9538L1.56309 6.74458H1.92003L2.03078 6.39995ZM4.04928 6.39995L4.17234 6.74458H4.51697L4.23388 6.9538L4.34466 7.28611L4.04928 7.07689L3.76619 7.28611L3.87697 6.9538L3.58156 6.74458H3.95081L4.04928 6.39995ZM6.08006 6.39995L6.19084 6.74458H6.54775L6.26469 6.9538L6.37544 7.28611L6.08006 7.07689L5.79697 7.28611L5.90775 6.9538L5.61238 6.74458H5.96928L6.08006 6.39995ZM8.11084 6.39995L8.22163 6.74458H8.57853L8.28316 6.9538L8.40625 7.28614L8.11084 7.07692L7.81547 7.28614L7.93853 6.95383L7.64316 6.74461H8.00009L8.11084 6.39995ZM10.1293 6.39995L10.2524 6.74458H10.5847L10.3016 6.9538L10.4124 7.28611L10.117 7.07689L9.83394 7.28611L9.94472 6.9538L9.64931 6.74458H10.0186L10.1293 6.39995ZM1.02153 7.26152L1.12 7.60611H1.48925L1.19384 7.81536L1.30463 8.14767L1.00925 7.93842L0.738469 8.14767L0.849251 7.81536L0.553844 7.60611H0.923126L1.02153 7.26152ZM3.04003 7.26152L3.15081 7.60611H3.50772L3.22466 7.81536L3.33541 8.14767L3.04003 7.93842L2.75694 8.14767L2.86772 7.81536L2.57234 7.60611H2.92925L3.04003 7.26152ZM5.07081 7.26152L5.18159 7.60611H5.5385L5.24313 7.81536L5.36622 8.14767L5.07081 7.93842L4.77544 8.14767L4.8985 7.81536L4.60313 7.60611H4.96006L5.07081 7.26152ZM7.08931 7.26152L7.21238 7.60611H7.557L7.27391 7.81536L7.38469 8.14767L7.08931 7.93842L6.80622 8.14767L6.917 7.81536L6.62159 7.60611H6.99084L7.08931 7.26152ZM9.12009 7.26152L9.23084 7.60611H9.58778L9.30472 7.81536L9.41547 8.14767L9.12009 7.93842L8.837 8.14767L8.94778 7.81536L8.65241 7.60611H9.00931L9.12009 7.26152ZM11.1509 7.26152L11.2617 7.60611H11.6186L11.3232 7.81536L11.4463 8.14767L11.1509 7.93842L10.8555 8.14767L10.9786 7.81536L10.6832 7.60611H11.0401L11.1509 7.26152Z" fill="white"/>
</g>
<defs>
<clipPath id="clip0_432_1952">
<rect width="16" height="16" rx="8" fill="white"/>
</clipPath>
</defs>
</svg>
